# xmcd
#
# Track frame offsets: 
#        150
#        14761
#        22802
#        28807
#        32985
#        37428
#        42678
#        48856
#        55939
#        61336
#        69754
#        75385
#        84750
#        94483
#        105815
#        118861
#        131888
#        140459
#        150922
#        161000
#        168130
#        179274
#        187991
#        193606
#        200020
#        207325
#        214556
#        228587
#        238942
#        249764
#        258774
#        269577
#        281791
#        291650
#
# Disc length: 3980 seconds
#
# Revision: 0
# Processed by: cddbd v1.5.2PL0 Copyright (c) Steve Scherf et al.
# Submitted via: ExactAudioCopy v0.95b3
#
DISCID=ed0f8a22
DTITLE=June Carter - Early June
DYEAR=1900
DGENRE=Country
TTITLE0=I Wonder How The Old Folks Are At Home (InThe Highways)
TTITLE1=Engine
TTITLE2=Corrine Corrina
TTITLE3=Oh Susannah
TTITLE4=It's Hard To Please Your Mind
TTITLE5=Sourwood Mountain
TTITLE6=Great Speckled Biird
TTITLE7=Gathering Flowers From The Hillside
TTITLE8=Polly Wolly Doodle
TTITLE9=I Shall Not Be Moved
TTITLE10=I've Been Working On The Railroad
TTITLE11=No Letter Today
TTITLE12=I Wish I Had Never Met Sunshine
TTITLE13=Root, Hog Or Die
TTITLE14=Baby It's Cold Outside
TTITLE15=Country Girl
TTITLE16=Grandma Told Me So
TTITLE17=Eight More Miles To Louisville
TTITLE18=It's Raining Here This Morning
TTITLE19=The New Streamliner
TTITLE20=You Made Toothpicks Of The Timber Of My Haert
TTITLE21=Take An Old 'Tater (And Wait)
TTITLE22=Life Gets Tedious
TTITLE23=Take Me Back To Tulsa
TTITLE24=The Dude Cowboy
TTITLE25=Reuben
TTITLE26=Fair And Tender Ladies
TTITLE27=Juke Box Blues
TTITLE28=No Swallerin' Place
TTITLE29=You Flopped When You Got Me Alone
TTITLE30=We're Got Things To Do
TTITLE31=Love Oh Crazy Love
TTITLE32=Thalheimers Department Store (commercial # 1 with June Carter
TTITLE32=) Bonus Matrial
TTITLE33=Thalheimers Department Store (commercial # 2 with June Carter
TTITLE33=) Bonus Material
EXTD=
EXTT0=
EXTT1=
EXTT2=
EXTT3=
EXTT4=
EXTT5=
EXTT6=
EXTT7=
EXTT8=
EXTT9=
EXTT10=
EXTT11=
EXTT12=
EXTT13=
EXTT14=
EXTT15=
EXTT16=
EXTT17=
EXTT18=
EXTT19=
EXTT20=
EXTT21=
EXTT22=
EXTT23=
EXTT24=
EXTT25=
EXTT26=
EXTT27=
EXTT28=
EXTT29=
EXTT30=
EXTT31=
EXTT32=
EXTT33=
PLAYORDER=
